<?xml version="1.0" encoding="utf-8"?>
<!-- Generator: Adobe Illustrator 26.5.0, SVG Export Plug-In . SVG Version: 6.00 Build 0)  -->
<svg version="1.1" xmlns="http://www.w3.org/2000/svg" xmlns:xlink="http://www.w3.org/1999/xlink" x="0px" y="0px"
	 viewBox="0 0 1080 1080" style="enable-background:new 0 0 1080 1080;" xml:space="preserve">
<g id="Alpha_Shark_Text">
</g>
<g id="Line_L">
	<path d="M921.4,511.4H657.1l-85.8-202.1l-31.2-73.6h0L423.1,511.1l0.5,0.3l-210.4-0.3c15.3-166.7,155.5-297.2,326.2-297.2
		c155.1,0,285,107.8,318.9,252.5h59.1c-34.3-176.7-189.8-310-376.5-310c-211.8,0-383.5,171.7-383.5,383.5c0,9.7,0.4,19.3,1.1,28.8
		h240.1l-86.8,204.4c-43.9-42.8-75.8-97.8-90.2-159.4h-59.1c34.3,176.6,189.8,310,376.5,310c211.8,0,383.5-171.7,383.5-383.5
		C922.5,530.5,922.1,520.9,921.4,511.4z M540.6,866.1c-67.4,0-130.1-20.4-182.2-55.3L540,382.9h0.1l181.9,428.5
		C670,845.9,607.6,866.1,540.6,866.1z M768.5,773.8l-87-204.9c72.4,0,185.7,0,185.3,0C859.4,649.1,823.1,720.9,768.5,773.8z"/>
</g>
</svg>
